<svg enable-background="new 0 0 30 30" viewBox="0 0 30 30" xmlns="http://www.w3.org/2000/svg"><path d="m4.25 12.68v-.32c0-.1.03-.18.1-.25s.15-.1.25-.1h7.58c.1 0 .18.03.25.1s.1.15.1.25v.32c0 .1-.03.18-.1.25s-.15.1-.25.1h-.44v1.65h2.12c.02-.28.14-.52.35-.71s.46-.29.75-.29.53.1.74.29.32.43.35.71h1.32v-3.39c-.14-.01-.25-.06-.35-.16s-.15-.23-.15-.37v-.31c0-.14.05-.27.16-.38s.24-.16.39-.16h1.99c.15 0 .28.05.38.16s.15.23.15.38v.31c0 .14-.05.27-.14.37s-.2.16-.34.16v3.39h1.56c.27 0 .51.1.71.3s.3.44.3.71v2.93l3.73 4.87h-4.74v-3.04h-.71c.11.26.16.54.16.83 0 .61-.21 1.12-.64 1.56-.43.43-.95.65-1.55.65-.61 0-1.12-.22-1.56-.65-.43-.43-.65-.95-.65-1.56 0-.29.05-.57.16-.83h-1c.11.27.17.55.17.83 0 .61-.22 1.12-.65 1.56s-.95.65-1.56.65-1.12-.22-1.55-.65-.64-.95-.64-1.56c0-.29.05-.57.16-.83h-1.19c.12.29.18.57.18.83 0 .61-.22 1.12-.65 1.56s-.95.65-1.56.65-1.12-.22-1.56-.65-.65-.95-.65-1.56c0-.29.06-.57.17-.84-.24-.04-.45-.15-.61-.34s-.24-.41-.24-.66v-.86h-.02v-5.55h-.43c-.1 0-.18-.03-.25-.1s-.1-.15-.1-.25zm2.05 3.94c0 .21.07.39.22.54s.33.22.54.22h1.44c.21 0 .39-.07.53-.22s.22-.33.22-.54v-2.3c0-.21-.07-.38-.22-.53s-.32-.22-.53-.22h-1.43c-.21 0-.39.07-.54.23-.15.15-.22.32-.22.52v2.3zm9.48-11.19c0 .41.16.76.47 1.04 0 .2.09.43.26.68s.36.4.56.44c.04.22.15.41.31.57.16.15.36.25.59.3-.11.11-.16.24-.16.39 0 .18.06.33.18.45s.27.18.45.18.33-.06.46-.19c.13-.12.19-.28.19-.45 0-.02 0-.05-.01-.09s-.01-.08-.01-.1h.03c.21 0 .39-.08.54-.23s.23-.34.23-.55c0-.1-.04-.22-.12-.38.17-.09.31-.25.41-.47h.45c.39-.02.73-.17 1-.45.28-.28.42-.61.42-1.01 0-.34-.11-.64-.33-.9s-.5-.43-.83-.52c-.08-.4-.29-.73-.62-.99s-.71-.39-1.12-.39-.77.13-1.08.38-.52.58-.62.97h-.11c-.41 0-.77.13-1.08.39-.31.25-.46.57-.46.93z"/></svg>